<svg width="24" height="25" viewBox="0 0 24 25" fill="none" xmlns="http://www.w3.org/2000/svg">
<path d="M8.51009 20.4988H8.43009C6.81845 20.4848 5.23012 20.1159 3.78009 19.4187C3.51336 19.2945 3.29375 19.089 3.1534 18.8322C3.01304 18.5754 2.95932 18.2809 3.00009 17.9917C3.04444 17.7005 3.18048 17.4306 3.3888 17.2206C3.59712 17.0107 3.86706 16.8712 4.16009 16.8223C5.0587 16.7035 5.92318 16.4034 6.70009 15.9404C5.35125 14.8953 4.31284 13.5081 3.69491 11.9258C3.07698 10.3434 2.90254 8.62488 3.19009 6.95228C3.22908 6.68734 3.34406 6.43909 3.52134 6.23705C3.69862 6.03502 3.93075 5.88771 4.19009 5.81266C4.44241 5.73414 4.71244 5.73078 4.96666 5.80301C5.22088 5.87524 5.4481 6.01988 5.62009 6.21896C6.20409 6.97783 6.93799 7.61084 7.777 8.07937C8.61601 8.5479 9.54255 8.84214 10.5001 8.94412C10.5458 7.77662 11.0521 6.67353 11.9101 5.87212C12.3385 5.4656 12.8443 5.14763 13.3979 4.93675C13.9516 4.72587 14.542 4.62629 15.1349 4.64381C15.7278 4.66134 16.3112 4.79562 16.8512 5.03882C17.3912 5.28203 17.8769 5.6293 18.2801 6.0604C18.3851 6.15243 18.5156 6.21108 18.6547 6.22875C18.7938 6.24642 18.935 6.2223 19.0601 6.1595C19.2985 6.04806 19.564 6.00611 19.8256 6.03855C20.0872 6.07098 20.3341 6.17646 20.5374 6.34268C20.7408 6.50889 20.8923 6.729 20.9742 6.9773C21.0561 7.22561 21.0651 7.49188 21.0001 7.74505C20.7694 8.68659 20.3324 9.56625 19.7201 10.3216C19.5851 13.1406 18.331 15.7925 16.231 17.699C14.1311 19.6054 11.3558 20.6119 8.51009 20.4988ZM8.51009 18.5169H8.59009C9.75276 18.5565 10.9118 18.367 12 17.9594C13.0882 17.5518 14.084 16.9342 14.9295 16.1424C15.7751 15.3506 16.4536 14.4003 16.9257 13.3467C17.3979 12.2931 17.6543 11.157 17.6801 10.0045C17.6966 9.68859 17.828 9.38935 18.0501 9.16214C18.294 8.85617 18.502 8.52371 18.6701 8.17117C18.3098 8.17185 17.9535 8.09717 17.6244 7.95202C17.2952 7.80687 17.0007 7.59452 16.7601 7.32884C16.5287 7.10147 16.2538 6.92213 15.9516 6.80132C15.6494 6.6805 15.3259 6.62065 15.0001 6.62526C14.671 6.61682 14.3435 6.67289 14.0363 6.79023C13.7291 6.90757 13.4483 7.08387 13.2101 7.30903C12.8887 7.61127 12.653 7.99187 12.5266 8.41273C12.4003 8.8336 12.3877 9.27996 12.4901 9.70717L12.7501 10.8369L11.5801 10.9162C10.3812 11.013 9.17535 10.8505 8.04611 10.4399C6.91686 10.0292 5.89118 9.3802 5.04009 8.53783C5.00359 9.84234 5.33289 11.1313 5.99139 12.2615C6.64988 13.3916 7.61176 14.3186 8.77009 14.9395L9.72009 15.4746L9.09009 16.3665C8.40878 17.2519 7.47528 17.9147 6.41009 18.2691C7.0934 18.4389 7.79566 18.5221 8.50009 18.5169H8.51009Z" fill="#6E7191"/>
</svg>
