<svg width="24" height="25" viewBox="0 0 24 25" fill="none" xmlns="http://www.w3.org/2000/svg">
<path d="M22.5401 6.60811C22.4213 6.1378 22.1794 5.70689 21.8387 5.3589C21.4981 5.0109 21.0708 4.75815 20.6001 4.62617C18.8801 4.20996 12.0001 4.20996 12.0001 4.20996C12.0001 4.20996 5.12008 4.20996 3.40008 4.66581C2.92933 4.79779 2.50206 5.05054 2.16143 5.39854C1.8208 5.74653 1.57887 6.17744 1.46008 6.64775C1.1453 8.37754 0.991319 10.1323 1.00008 11.89C0.988863 13.6609 1.14285 15.429 1.46008 17.1719C1.59104 17.6276 1.83839 18.0421 2.17823 18.3754C2.51806 18.7087 2.9389 18.9495 3.40008 19.0745C5.12008 19.5304 12.0001 19.5304 12.0001 19.5304C12.0001 19.5304 18.8801 19.5304 20.6001 19.0745C21.0708 18.9425 21.4981 18.6898 21.8387 18.3418C22.1794 17.9938 22.4213 17.5629 22.5401 17.0926C22.8524 15.3758 23.0064 13.6344 23.0001 11.89C23.0113 10.1191 22.8573 8.35093 22.5401 6.60811V6.60811Z" stroke="#6E7191" stroke-width="2" stroke-linecap="round" stroke-linejoin="round"/>
<path d="M9.75 15.1304L15.5 11.8899L9.75 8.64941V15.1304Z" stroke="#6E7191" stroke-width="2" stroke-linecap="round" stroke-linejoin="round"/>
</svg>
